<svg xmlns="http://www.w3.org/2000/svg" version="1.1" xmlns:xlink="http://www.w3.org/1999/xlink" xmlns:svgjs="http://svgjs.dev/svgjs" width="1000" height="623" viewBox="0 0 1000 623"><g transform="matrix(1,0,0,1,-0.6060606060606233,0.2522267206477977)"><svg viewBox="0 0 396 247" data-background-color="#ffffff" preserveAspectRatio="xMidYMid meet" height="623" width="1000" xmlns="http://www.w3.org/2000/svg" xmlns:xlink="http://www.w3.org/1999/xlink"><g id="tight-bounds" transform="matrix(1,0,0,1,0.2400000000000091,-0.09999999999999432)"><svg viewBox="0 0 395.52 247.2" height="247.2" width="395.52"><g><svg></svg></g><g><svg viewBox="0 0 395.52 247.2" height="247.2" width="395.52"><g transform="matrix(1,0,0,1,75.54432,49.97323639340566)"><svg viewBox="0 0 244.43135999999998 147.25352721318868" height="147.25352721318868" width="244.43135999999998"><g><svg viewBox="0 0 383.25820586591146 230.88740596605058" height="147.25352721318868" width="244.43135999999998"><g><svg viewBox="0 0 244.43135999999998 230.88740596605058" height="230.88740596605058" width="244.43135999999998"><g id="textblocktransform"><svg viewBox="0 0 244.43135999999998 230.88740596605058" height="230.88740596605058" width="244.43135999999998" id="textblock"><g><svg viewBox="0 0 244.43135999999998 108.15546902654867" height="108.15546902654867" width="244.43135999999998"><g transform="matrix(1,0,0,1,0,0)"><svg width="244.43135999999998" viewBox="1.75 -37.5 112.99 50" height="108.15546902654867" data-palette-color="#4a596d"><path d="M19.7-4.85L19.7-4.85 19.7-2.6 19.8 0 25.15 0 25.15-1.8 21.6-1.8 21.6-18.75 15.85-18.75 15.85-16.8 19.55-16.8 19.55-8.5Q19.55-7 18.93-5.73 18.3-4.45 17.25-3.6L17.25-3.6Q16.15-2.65 14.78-2.15 13.4-1.65 11.85-1.65L11.85-1.65Q9.75-1.75 8.68-2.93 7.6-4.1 7.5-5.75L7.5-5.75 7.5-18.75 1.75-18.75 1.75-16.8 5.45-16.8 5.45-5.2Q5.55-2.7 7.15-1.15 8.75 0.4 11.5 0.4L11.5 0.4Q14.25 0.4 16.48-1.03 18.7-2.45 19.7-4.85ZM28.65 0L40.6 0Q42.65 0 44.62-0.58 46.6-1.15 48.15-2.3L48.15-2.3Q49.6-3.4 50.52-5.08 51.45-6.75 51.45-9L51.45-9Q51.45-10.8 50.85-12.25 50.25-13.7 49.2-14.8L49.2-14.8Q48.15-15.9 46.77-16.6 45.4-17.3 43.95-17.6L43.95-17.6Q47.1-18.45 48.62-20.8 50.15-23.15 50.15-26.25L50.15-26.25Q50.15-28.55 49.4-30.23 48.65-31.9 47.25-32.95L47.25-32.95Q45.9-34 43.95-34.5 42-35 39.7-35L39.7-35 28.65-35 28.65-33.05 31.7-33.05 31.7-1.95 28.65-1.95 28.65 0ZM33.75-1.95L33.75-16.6 39.55-16.6Q41.45-16.6 43.22-16.15 45-15.7 46.4-14.8L46.4-14.8Q47.75-13.95 48.57-12.53 49.4-11.1 49.4-9.15L49.4-9.15Q49.4-7.35 48.67-6 47.95-4.65 46.75-3.8L46.75-3.8Q45.5-2.85 43.87-2.4 42.25-1.95 40.4-1.95L40.4-1.95 33.75-1.95ZM33.75-18.55L33.75-33.05 40.15-33.05Q41.9-33.05 43.32-32.65 44.75-32.25 45.8-31.45L45.8-31.45Q46.9-30.65 47.5-29.3 48.1-27.95 48.1-26.1L48.1-26.1Q48.1-22.7 46.02-20.63 43.95-18.55 40.35-18.55L40.35-18.55 33.75-18.55ZM54.95 0L64.6 0 64.6-1.95 60.7-1.95 60.7-37.5 55.1-37.5 55.1-35.55 58.65-35.55 58.65-1.95 54.95-1.95 54.95 0ZM84.99-2.5L84.99-2.5Q86.29-3.85 87.07-5.6 87.84-7.35 87.84-9.4L87.84-9.4Q87.84-11.4 87.07-13.2 86.29-15 84.99-16.35L84.99-16.35Q83.64-17.65 81.82-18.43 79.99-19.2 77.94-19.2L77.94-19.2Q75.89-19.2 74.09-18.43 72.29-17.65 70.99-16.35L70.99-16.35Q69.64-15 68.89-13.2 68.14-11.4 68.14-9.4L68.14-9.4Q68.14-7.35 68.89-5.58 69.64-3.8 70.99-2.5L70.99-2.5Q72.29-1.15 74.07-0.4 75.84 0.35 77.94 0.35L77.94 0.35Q79.99 0.35 81.82-0.4 83.64-1.15 84.99-2.5ZM72.44-3.95L72.44-3.95Q71.39-4.95 70.79-6.35 70.19-7.75 70.19-9.4L70.19-9.4Q70.19-11 70.79-12.4 71.39-13.8 72.44-14.9L72.44-14.9Q73.49-15.95 74.89-16.55 76.29-17.15 77.89-17.15L77.89-17.15Q79.49-17.15 80.92-16.55 82.34-15.95 83.39-14.9L83.39-14.9Q84.49-13.8 85.09-12.4 85.69-11 85.69-9.4L85.69-9.4Q85.69-7.75 85.09-6.35 84.49-4.95 83.39-3.95L83.39-3.95Q82.34-2.85 80.92-2.25 79.49-1.65 77.89-1.65L77.89-1.65Q76.29-1.65 74.89-2.25 73.49-2.85 72.44-3.95ZM95.29 7.95L93.84 9.6Q95.24 10.95 97.17 11.73 99.09 12.5 101.49 12.5L101.49 12.5Q103.49 12.45 105.22 11.68 106.94 10.9 108.24 9.5L108.24 9.5Q109.54 8.15 110.29 6.18 111.04 4.2 111.04 1.7L111.04 1.7 111.04-16.8 114.74-16.8 114.74-18.75 109.39-18.75Q109.29-17.6 109.24-16.53 109.19-15.45 109.19-14.35L109.19-14.35Q108.29-16.35 106.14-17.75 103.99-19.15 101.19-19.15L101.19-19.15Q99.09-19.15 97.32-18.38 95.54-17.6 94.19-16.3L94.19-16.3Q92.84-14.95 92.09-13.15 91.34-11.35 91.34-9.4L91.34-9.4Q91.34-7.35 92.09-5.6 92.84-3.85 94.19-2.55L94.19-2.55Q95.54-1.2 97.32-0.43 99.09 0.35 101.19 0.35L101.19 0.35Q102.64 0.35 103.94-0.03 105.24-0.4 106.29-1.1L106.29-1.1Q107.24-1.7 107.97-2.5 108.69-3.3 109.04-4.25L109.04-4.25Q109.04-3.6 109.02-3 108.99-2.4 108.99-1.9L108.99-1.9 108.99 1.6Q108.99 3.55 108.39 5.18 107.79 6.8 106.79 7.95L106.79 7.95Q105.74 9.15 104.37 9.78 102.99 10.4 101.44 10.4L101.44 10.4Q99.64 10.4 97.99 9.73 96.34 9.05 95.29 7.95L95.29 7.95ZM101.19-17.15L101.19-17.15Q102.74-17.15 104.14-16.6 105.54-16.05 106.59-15.05L106.59-15.05Q107.69-13.95 108.34-12.5 108.99-11.05 108.99-9.4L108.99-9.4Q108.99-7.75 108.39-6.35 107.79-4.95 106.74-3.95L106.74-3.95Q105.69-2.9 104.27-2.27 102.84-1.65 101.19-1.65L101.19-1.65Q99.54-1.65 98.14-2.23 96.74-2.8 95.69-3.85L95.69-3.85Q94.64-4.9 94.02-6.33 93.39-7.75 93.39-9.4L93.39-9.4Q93.39-11 93.97-12.38 94.54-13.75 95.59-14.8L95.59-14.8Q96.59-15.9 98.04-16.53 99.49-17.15 101.19-17.15Z" opacity="1" transform="matrix(1,0,0,1,0,0)" fill="#4a596d" class="wordmark-text-0" data-fill-palette-color="primary" id="text-0"></path></svg></g></svg></g><g transform="matrix(1,0,0,1,0,159.22129003837168)"><svg viewBox="0 0 244.43135999999998 71.6661159276789" height="71.6661159276789" width="244.43135999999998"><path d="M244.431 0l-11.944 35.833 11.944 35.833h-244.431l11.944-35.833-11.944-35.833z" data-fill-palette-color="tertiary" opacity="1" fill="#4a596d"></path><g transform="matrix(1,0,0,1,46.68638976,25.532910505911506)"><svg width="151.05858048" viewBox="3.25 -33 245.63 33.5" height="20.60029491585589" data-palette-color="#ffffff"><path d="M29.1 0L3.25 0 3.25-0.8 7.25-2.8 7.25-30.2 3.25-32.2 3.25-33 27.7-33 27.7-24.4 26.9-24.4 23.8-30.25 11.75-30.25 11.75-18.4 20.25-18.4 22.75-22.55 23.55-22.55 23.55-11.6 22.75-11.6 20.25-15.65 11.75-15.65 11.75-2.75 25.2-2.75 28.3-9.1 29.1-9.1 29.1 0ZM45.1 0L34.35 0 34.35-0.8 37.95-2.35 47.2-14.15 38.35-25.85 35.05-27.2 35.05-28 46.9-28 46.9-27.2 43.45-25.6 43.45-25.4 50.1-16.7 56.55-25.4 56.55-25.55 53.3-27.2 53.3-28 63.4-28 63.4-27.2 60.3-25.75 51.6-14.75 61-2.4 64.8-0.8 64.8 0 52.8 0 52.8-0.8 56-2.3 56-2.5 48.75-12.15 41.6-2.55 41.6-2.4 45.1-0.8 45.1 0ZM81.75 0L69.8 0 69.8-0.8 73.4-2.45 73.4-25.55 69.8-27.2 69.8-28 80.9-28Q92.35-28 92.35-20.05L92.35-20.05Q92.35-17.5 90.8-15.65 89.25-13.8 86.52-12.83 83.8-11.85 80.25-11.85L80.25-11.85 77.65-11.85 77.65-2.45 81.75-0.8 81.75 0ZM80.1-25.5L77.65-25.5 77.65-14.35 80.4-14.35Q83.85-14.35 85.87-15.83 87.9-17.3 87.9-20L87.9-20Q87.9-22.95 85.82-24.23 83.75-25.5 80.1-25.5L80.1-25.5ZM109.29 0L98.19 0 98.19-0.8 101.79-2.45 101.79-25.55 98.19-27.2 98.19-28 109.29-28Q113.94-28 116.62-26.1 119.29-24.2 119.29-20.9L119.29-20.9Q119.29-18.45 117.77-16.7 116.24-14.95 113.54-13.95L113.54-13.95 121.29-2.3 124.59-0.8 124.59 0 117.49 0 109.39-12.75 105.99-12.75 105.99-2.5 109.29-0.8 109.29 0ZM108.59-25.5L108.59-25.5 105.99-25.5 105.99-15.25 108.84-15.25Q111.54-15.25 113.17-16.63 114.79-18 114.79-20.4L114.79-20.4Q114.79-22.95 113.17-24.23 111.54-25.5 108.59-25.5ZM150.19 0L127.59 0 127.59-0.8 131.14-2.45 131.14-25.55 127.59-27.2 127.59-28 148.94-28 148.94-20.9 148.14-20.9 145.74-25.5 135.39-25.5 135.39-15.75 142.94-15.75 144.44-19.15 145.24-19.15 145.24-9.9 144.44-9.9 142.94-13.25 135.39-13.25 135.39-2.5 146.89-2.5 149.39-7.9 150.19-7.9 150.19 0ZM165.64 0.5L165.64 0.5Q162.99 0.5 161.06-0.05 159.14-0.6 157.14-1.55L157.14-1.55 156.69-8.3 157.49-8.3 159.84-3.8Q161.29-2.7 162.81-2.27 164.34-1.85 165.94-1.85L165.94-1.85Q168.79-1.85 170.31-3.03 171.84-4.2 171.84-6.6L171.84-6.6Q171.84-8.4 170.89-9.38 169.94-10.35 168.11-11.18 166.29-12 163.64-13.25L163.64-13.25Q160.49-14.75 159.11-16.3 157.74-17.85 157.74-20.6L157.74-20.6Q157.74-22.7 158.99-24.5 160.24-26.3 162.26-27.43 164.29-28.55 166.74-28.55L166.74-28.55Q168.79-28.55 170.54-28.03 172.29-27.5 173.99-26.7L173.99-26.7 174.34-20.2 173.54-20.2 171.64-24.3Q170.44-25.3 169.34-25.75 168.24-26.2 166.79-26.2L166.79-26.2Q164.29-26.2 162.86-24.95 161.44-23.7 161.44-21.65L161.44-21.65Q161.44-20.3 162.09-19.4 162.74-18.5 164.11-17.73 165.49-16.95 167.69-15.9L167.69-15.9Q170.54-14.55 172.24-13.43 173.94-12.3 174.71-10.9 175.49-9.5 175.49-7.35L175.49-7.35Q175.49-5.05 174.21-3.28 172.94-1.5 170.71-0.5 168.49 0.5 165.64 0.5ZM190.19 0.5L190.19 0.5Q187.54 0.5 185.61-0.05 183.69-0.6 181.69-1.55L181.69-1.55 181.24-8.3 182.04-8.3 184.39-3.8Q185.84-2.7 187.36-2.27 188.89-1.85 190.49-1.85L190.49-1.85Q193.34-1.85 194.86-3.03 196.39-4.2 196.39-6.6L196.39-6.6Q196.39-8.4 195.44-9.38 194.49-10.35 192.66-11.18 190.84-12 188.19-13.25L188.19-13.25Q185.04-14.75 183.66-16.3 182.29-17.85 182.29-20.6L182.29-20.6Q182.29-22.7 183.54-24.5 184.79-26.3 186.81-27.43 188.84-28.55 191.29-28.55L191.29-28.55Q193.34-28.55 195.09-28.03 196.84-27.5 198.54-26.7L198.54-26.7 198.89-20.2 198.09-20.2 196.19-24.3Q194.99-25.3 193.89-25.75 192.79-26.2 191.34-26.2L191.34-26.2Q188.84-26.2 187.41-24.95 185.99-23.7 185.99-21.65L185.99-21.65Q185.99-20.3 186.64-19.4 187.29-18.5 188.66-17.73 190.04-16.95 192.24-15.9L192.24-15.9Q195.09-14.55 196.79-13.43 198.49-12.3 199.26-10.9 200.04-9.5 200.04-7.35L200.04-7.35Q200.04-5.05 198.76-3.28 197.49-1.5 195.26-0.5 193.04 0.5 190.19 0.5ZM233.83 0.5L233.83 0.5Q230.48 0.5 227.83-0.63 225.18-1.75 223.66-4.23 222.13-6.7 222.13-10.7L222.13-10.7 222.13-25.55 218.53-27.2 218.53-28 229.98-28 229.98-27.2 226.38-25.55 226.38-11.05Q226.38-6.1 228.58-4.13 230.78-2.15 234.53-2.15L234.53-2.15Q236.73-2.15 238.53-3 240.33-3.85 241.41-5.58 242.48-7.3 242.48-10L242.48-10 242.48-25.65 238.18-27.2 238.18-28 248.88-28 248.88-27.2 245.33-25.6 245.33-10.7Q245.33-6.7 243.83-4.23 242.33-1.75 239.76-0.63 237.18 0.5 233.83 0.5Z" opacity="1" transform="matrix(1,0,0,1,0,0)" fill="#ffffff" class="slogan-text-1" data-fill-palette-color="quaternary" id="text-1"></path></svg></g></svg></g></svg></g></svg></g><g transform="matrix(1,0,0,1,269.9642705059115,66.94919726617107)"><svg viewBox="0 0 113.29393535999999 96.98901143370844" height="96.98901143370844" width="113.29393535999999"><g><svg xmlns="http://www.w3.org/2000/svg" xmlns:xlink="http://www.w3.org/1999/xlink" version="1.1" x="0" y="0" viewBox="14.405999999999985 18.868194512701614 73.68655363762392 63.08180548729839" enable-background="new 0 0 100 100" xml:space="preserve" height="96.98901143370844" width="113.29393535999999" class="icon-icon-0" data-fill-palette-color="accent" id="icon-0"><path fill="#4a596d" d="M84.896 19.566c-2.92-1.55-6.55-0.43-8.1 2.49l-0.28 0.53-0.39 0.73-1.47 2.79-0.19 0.36-6.86 13.05h-0.01l-1.68 3.2-5.38 10.21-2.2 4.18-2.91 5.53-1.39 11.57h-39.63v3h40.43c0.12 0 0.23-0.02 0.35-0.04 0.24-0.02 0.48-0.1 0.67-0.27l10.021-8.73c0.13-0.11 0.229-0.25 0.3-0.39l6.74-12.73 2.52-4.76 1.41-2.68 2.101-3.96 1.43-2.7h-0.01l0.739-1.38 3.86-7.31 1.59-3.01 0.721-1.35 0.119-0.23C88.947 24.746 87.817 21.106 84.896 19.566zM59.567 70.416l-2.461-1.3 0.61-5.06c0.3 0.05 0.61 0.12 0.93 0.21 0.011 0 0.021 0.01 0.04 0.01 0.62 0.17 1.311 0.45 2.091 0.87 0.8 0.42 1.42 0.83 1.909 1.25 0.011 0.01 0.021 0.02 0.03 0.02 0.25 0.21 0.48 0.43 0.69 0.66L59.567 70.416zM80.367 35.726l-2.32 4.39-3.57 6.75-1.42 2.68-8.2 15.51c-0.189-0.18-0.38-0.35-0.59-0.52-0.63-0.54-1.39-1.05-2.34-1.55s-1.8-0.85-2.6-1.06c-0.25-0.08-0.5-0.14-0.75-0.2l0.35-0.66 4.75-8.98 2.76-5.21 0.885-1.68 3.689-6.975 0.526-0.995 0.359-0.68 2.511-4.73c3.41 0.37 5.43 2.13 6.35 3.18L80.367 35.726zM81.247 34.056c-1.08-1.14-3.12-2.74-6.34-3.19l0.43-0.81c3.44 0.4 5.44 2.23 6.31 3.26L81.247 34.056zM85.237 26.526l-0.311 0.6h-0.01l-0.311 0.59-0.279 0.53-0.15 0.28-0.76 1.43-0.32 0.61-0.729 1.38-0.221 0.42c-1.05-1.13-3.079-2.77-6.31-3.26l0.04-0.08h-0.01l0.1-0.2 1.19-2.25 0.72-1.37 0.72-1.37 0.19-0.36 0.02 0.01 0.15-0.28c0.92-1.74 3.07-2.4 4.8-1.48C85.487 22.636 86.157 24.796 85.237 26.526z" data-fill-palette-color="accent"></path><path fill="#4a596d" d="M49.43 81.67c-0.1 0.12-0.21 0.22-0.33 0.28L49.43 81.67z" data-fill-palette-color="accent"></path></svg></g></svg></g></svg></g></svg></g><g><path d="M245.816 0c68.262 0 123.6 55.338 123.6 123.6 0 68.262-55.338 123.6-123.6 123.6-36.91 0-70.041-16.179-92.689-41.831l4.191 0c22.012 23.811 53.513 38.721 88.498 38.721 66.545 0 120.49-53.945 120.489-120.49 0-66.545-53.945-120.49-120.489-120.49-34.984 0-66.485 14.909-88.498 38.721l-4.191 0c22.648-25.653 55.779-41.831 92.689-41.831z" fill="#4a596d" stroke="transparent" data-fill-palette-color="tertiary"></path></g></svg></g><defs></defs></svg><rect width="395.52" height="247.2" fill="none" stroke="none" visibility="hidden"></rect></g></svg></g></svg>